<?xml version="1.0" standalone="no"?>
<!DOCTYPE svg PUBLIC "-//W3C//DTD SVG 20010904//EN"
 "http://www.w3.org/TR/2001/REC-SVG-20010904/DTD/svg10.dtd">
<svg version="1.0" xmlns="http://www.w3.org/2000/svg"
 width="1084.000000pt" height="804.000000pt" viewBox="0 0 1084.000000 804.000000"
 preserveAspectRatio="xMidYMid meet">

<g transform="translate(0.000000,804.000000) scale(0.100000,-0.100000)"
fill="#000000" stroke="none">
<path d="M0 4020 l0 -4020 5420 0 5420 0 0 4020 0 4020 -5420 0 -5420 0 0
-4020z m5230 2240 l0 -329 33 7 c17 4 97 7 177 7 80 0 160 -3 178 -7 l32 -7 0
330 0 330 38 -6 c231 -40 403 -94 587 -186 379 -188 698 -543 869 -967 25 -62
46 -117 46 -122 0 -6 -49 -10 -121 -10 l-120 0 -11 32 c-25 72 -123 257 -181
342 -70 104 -251 295 -346 366 -108 81 -264 170 -388 221 -65 26 -124 48 -130
49 -10 0 -13 -51 -13 -224 l0 -224 58 -23 c98 -40 249 -149 347 -250 100 -105
147 -170 211 -298 l43 -86 343 -5 343 -5 18 -100 c15 -77 19 -152 21 -330 1
-215 -1 -238 -26 -355 -124 -574 -482 -1040 -997 -1300 -130 -65 -386 -146
-554 -175 l-38 -6 1 328 1 328 -48 -5 c-62 -6 -230 -6 -312 0 l-64 5 2 -321
c1 -183 -2 -324 -7 -328 -5 -3 -52 4 -104 14 -293 60 -550 170 -763 327 -119
87 -333 305 -416 422 -158 224 -286 545 -315 794 l-6 57 111 0 c81 0 113 -3
115 -12 2 -7 9 -42 15 -78 32 -174 118 -394 209 -540 192 -304 465 -530 805
-664 64 -25 120 -46 122 -46 3 0 4 100 3 222 l-3 222 -91 46 c-121 62 -207
124 -308 225 -93 93 -153 177 -219 310 -41 80 -107 269 -107 302 0 10 28 13
119 13 l119 0 7 -37 c13 -72 66 -191 121 -274 135 -203 313 -335 549 -405 76
-23 110 -27 220 -28 245 -1 423 53 602 185 96 72 243 228 243 261 0 4 -68 8
-151 8 l-151 0 -61 -46 c-70 -53 -129 -84 -204 -108 -57 -19 -56 -16 -53 -107
1 -54 0 -57 -26 -62 -16 -3 -43 -3 -61 0 l-33 6 0 67 0 67 -66 6 c-37 4 -71 4
-76 1 -5 -3 -7 -31 -4 -63 3 -31 2 -61 -2 -67 -10 -15 -72 -23 -99 -13 -22 8
-23 12 -17 97 l7 88 -67 39 c-90 52 -195 164 -236 250 -17 36 -41 104 -52 151
l-21 84 -634 0 -633 0 0 109 0 108 36 6 c21 4 56 4 80 0 23 -3 153 -2 287 2
l245 7 12 82 c33 233 154 460 343 643 113 110 182 160 305 222 l82 41 0 220
c0 121 -3 220 -8 220 -18 0 -176 -66 -277 -116 -359 -178 -660 -517 -793 -894
-30 -87 -70 -242 -74 -295 l-3 -30 -112 -3 -113 -3 0 28 c0 57 42 247 76 346
52 149 131 307 225 448 119 178 326 385 499 499 146 96 305 175 444 220 95 31
297 78 344 79 l22 1 0 -330z m-2956 -3874 c55 -17 130 -75 153 -119 15 -29 15
-32 -2 -42 -10 -5 -30 -20 -45 -32 -38 -32 -60 -29 -92 11 -16 19 -47 42 -73
52 -39 15 -52 15 -87 4 -91 -27 -141 -118 -119 -216 24 -108 115 -164 206
-130 26 10 58 33 75 54 l30 37 28 -18 c15 -10 42 -25 60 -34 17 -9 32 -22 32
-29 0 -7 -22 -35 -50 -63 -69 -69 -139 -94 -245 -89 -126 7 -197 53 -260 168
-26 49 -30 65 -30 140 0 77 3 92 33 152 37 76 83 119 157 148 60 23 163 26
229 6z m810 -16 c56 -27 101 -77 135 -150 20 -44 25 -71 26 -136 0 -73 -3 -88
-35 -150 -61 -118 -162 -172 -306 -161 -127 9 -221 78 -264 194 -24 65 -26
161 -5 224 33 94 119 177 208 200 58 15 192 3 241 -21z m2049 6 c45 -20 137
-106 137 -128 0 -14 -35 -43 -98 -82 -8 -5 -25 7 -48 33 -50 55 -107 76 -165
61 -172 -47 -159 -322 17 -356 43 -8 103 19 140 63 l31 36 62 -34 c33 -18 61
-39 61 -46 0 -25 -73 -93 -128 -120 -50 -25 -68 -28 -152 -28 -109 0 -150 15
-213 78 -62 62 -91 136 -91 232 0 148 76 258 206 301 54 18 189 12 241 -10z
m-1513 -286 c3 -157 4 -287 3 -289 -4 -8 -93 -13 -117 -7 l-26 6 0 288 0 287
68 0 67 -1 5 -284z m825 278 c6 -4 8 -106 5 -290 l-5 -283 -62 0 c-75 0 -70
-4 -225 188 -66 81 -124 147 -129 147 -5 0 -8 -69 -7 -167 l3 -168 -58 -3
c-35 -2 -64 2 -73 9 -11 9 -14 62 -14 290 l0 279 73 0 c71 0 74 -1 108 -37 20
-21 83 -96 140 -167 l104 -130 3 170 2 171 63 -1 c34 -1 67 -4 72 -8z m1421
-10 c43 -24 99 -89 114 -133 7 -20 10 -63 8 -95 -4 -57 -10 -69 -74 -158 -16
-22 -15 -25 30 -92 26 -38 45 -74 41 -80 -7 -11 -96 -12 -134 -1 -14 4 -39 30
-60 61 -36 54 -38 55 -88 58 l-52 3 -3 -63 -3 -63 -47 -3 c-25 -1 -58 2 -72 8
l-26 10 0 279 c1 153 3 281 5 283 3 3 78 4 167 4 132 -1 169 -5 194 -18z m752
9 c5 -7 29 -57 52 -112 23 -55 76 -178 117 -273 42 -95 73 -175 71 -178 -10
-9 -83 -15 -116 -9 -25 5 -36 14 -50 43 l-17 37 -134 3 c-75 1 -139 -2 -144
-7 -5 -5 -12 -24 -16 -43 l-7 -33 -77 -3 c-58 -2 -77 0 -77 10 0 7 43 114 96
238 52 124 105 248 116 277 11 29 28 53 37 55 48 9 140 6 149 -5z m880 -12
c55 -22 122 -98 146 -164 27 -76 19 -192 -17 -254 -33 -56 -99 -114 -146 -127
-20 -6 -108 -13 -195 -17 -147 -6 -160 -5 -172 12 -11 15 -14 78 -14 291 l0
273 53 4 c110 10 301 -1 345 -18z m515 15 l40 0 -5 -215 c-2 -118 -2 -219 2
-224 3 -6 68 -12 150 -13 l145 -3 3 -56 c4 -69 21 -64 -238 -64 l-195 0 -5
283 c-3 155 -3 287 -1 293 2 7 15 9 33 5 17 -3 49 -6 71 -6z m1017 -60 l0 -60
-150 0 -150 0 0 -55 0 -54 118 -3 117 -3 0 -55 0 -55 -117 -3 -118 -3 0 -49 0
-49 148 -3 147 -3 3 -56 3 -56 -212 -6 c-149 -5 -217 -3 -226 4 -10 9 -13 71
-13 290 l0 279 225 0 225 0 0 -60z"/>
<path d="M5263 5705 c-357 -65 -657 -342 -748 -691 -39 -150 -60 -135 186
-132 l211 3 17 46 c43 112 152 238 259 299 l61 35 1 124 c0 108 2 122 16 117
9 -3 36 -6 60 -6 l44 0 0 -100 c0 -99 0 -100 23 -96 12 3 43 8 70 11 l47 6 1
62 c1 34 1 66 0 71 -1 4 1 17 4 28 6 16 15 19 63 16 l57 -3 0 -93 0 -94 78
-28 c86 -32 190 -101 323 -215 48 -41 56 -96 23 -155 -28 -50 -63 -70 -119
-70 -57 0 -73 11 -120 81 -65 94 -140 142 -253 160 -212 34 -405 -103 -447
-318 -33 -165 55 -340 208 -415 59 -29 78 -33 164 -36 87 -3 103 -1 153 22 31
14 92 54 135 88 l80 63 252 5 253 5 3 28 3 27 329 0 330 0 5 23 c3 12 4 105 3
207 l-3 185 -330 5 -329 5 -38 103 c-60 167 -130 276 -248 385 -187 173 -406
258 -660 256 -52 0 -127 -7 -167 -14z"/>
<path d="M6489 4219 c-119 -231 -290 -401 -524 -521 l-85 -43 0 -222 0 -221
35 9 c63 18 249 104 345 161 235 138 443 349 574 582 51 89 133 276 142 325
l7 31 -221 0 -221 0 -52 -101z"/>
<path d="M2885 2255 c-96 -34 -141 -152 -96 -251 34 -74 118 -116 186 -94 39
13 102 78 111 115 12 46 -1 143 -22 173 -21 28 -97 72 -124 72 -8 -1 -33 -7
-55 -15z"/>
<path d="M5655 2238 c-3 -8 -5 -53 -3 -99 l3 -84 63 0 c60 0 66 2 94 34 27 30
29 39 24 75 -10 61 -34 79 -111 84 -50 3 -66 1 -70 -10z"/>
<path d="M6517 2158 c-23 -49 -57 -137 -57 -148 0 -6 35 -10 79 -10 l80 0 -18
53 c-19 53 -58 137 -65 137 -2 0 -11 -15 -19 -32z"/>
<path d="M7250 2085 l0 -167 79 3 c84 4 114 18 153 70 30 39 34 117 10 172
-28 64 -57 80 -158 85 l-84 5 0 -168z"/>
</g>
</svg>
